<svg width="375" height="440" viewBox="0 0 375 440" fill="none" xmlns="http://www.w3.org/2000/svg">
<g filter="url(#filter0_d_14_323)">
<path d="M36.1793 287.361L71.4916 51.1988C71.5902 50.5395 72.2104 50.0807 72.8697 50.1793L274.267 80.2933C274.926 80.3919 275.385 81.012 275.287 81.6714L265.428 147.605C265.329 148.264 265.788 148.884 266.447 148.983L337.176 159.559C337.836 159.657 338.294 160.278 338.196 160.937L313.101 328.768C313.002 329.427 312.382 329.886 311.723 329.788L37.1989 288.739C36.5395 288.641 36.0807 288.021 36.1793 287.361Z" fill="#F4F4F4" stroke="#F2F2F2" stroke-width="0.606061" stroke-miterlimit="10"/>
<path d="M40.3135 284.303L48.5817 278.186L80.6676 63.6014L74.5503 55.3331L40.3135 284.303Z" fill="url(#paint0_linear_14_323)"/>
<path d="M75.9283 54.3136L82.0456 62.5819L261.865 89.4694L270.133 83.3522L75.9283 54.3136Z" fill="url(#paint1_linear_14_323)"/>
<path d="M262.313 152.042L254.045 158.159L324.774 168.735L333.042 162.618L262.313 152.042Z" fill="url(#paint2_linear_14_323)"/>
<path d="M271.063 85.3294L262.884 90.8473L253.025 156.781L261.294 150.664L271.063 85.3294Z" fill="url(#paint3_linear_14_323)"/>
<path d="M40.3135 284.303L74.5503 55.3331C74.6489 54.6737 75.269 54.2149 75.9283 54.3135L270.133 83.3521C270.792 83.4507 271.251 84.0708 271.153 84.7301L261.294 150.664C261.195 151.323 261.654 151.943 262.313 152.042L333.042 162.618C333.702 162.716 334.16 163.336 334.062 163.996L310.042 324.634C309.944 325.293 309.323 325.752 308.664 325.654L41.333 285.681C40.6737 285.582 40.2149 284.962 40.3135 284.303Z" fill="url(#paint4_linear_14_323)"/>
<path d="M308.664 325.654L302.547 317.385L49.6013 279.563L41.3331 285.681L308.664 325.654Z" fill="url(#paint5_linear_14_323)"/>
<path d="M48.5816 278.186L80.6674 63.6014C80.766 62.942 81.3861 62.4833 82.0454 62.5818L261.865 89.4694C262.524 89.568 262.983 90.1881 262.884 90.8474L253.384 154.384C253.086 156.374 254.452 158.22 256.442 158.518L324.774 168.735C325.433 168.834 325.892 169.454 325.793 170.113L303.925 316.366C303.826 317.025 303.206 317.484 302.547 317.385L49.6011 279.564C48.9418 279.465 48.483 278.845 48.5816 278.186Z" fill="#EAEAEA" stroke="#EAEAEA" stroke-width="2.42424" stroke-miterlimit="10"/>
<g filter="url(#filter1_d_14_323)">
<path d="M281.484 261.535L84.8814 232.138C79.5827 231.346 75.9327 226.412 76.725 221.114L96.2633 90.4452C97.0556 85.1465 101.989 81.4966 107.288 82.2889L228.366 100.393C233.665 101.185 237.315 106.119 236.522 111.418L228.994 161.767C228.201 167.066 231.851 171.999 237.15 172.791L293.493 181.216C298.792 182.008 302.442 186.942 301.65 192.24L292.508 253.379C291.716 258.678 286.782 262.327 281.484 261.535Z" fill="#EAEAEA"/>
</g>
<g filter="url(#filter2_d_14_323)">
<path d="M281.484 261.535L84.8814 232.138C79.5827 231.346 75.9327 226.412 76.725 221.114L96.2633 90.4452C97.0556 85.1465 101.989 81.4966 107.288 82.2889L228.366 100.393C233.665 101.185 237.315 106.119 236.522 111.418L228.994 161.767C228.201 167.066 231.851 171.999 237.15 172.791L293.493 181.216C298.792 182.008 302.442 186.942 301.65 192.24L292.508 253.379C291.716 258.678 286.782 262.327 281.484 261.535Z" fill="#EAEAEA"/>
</g>
<path d="M79.7121 246.71C80.9109 246.889 81.8441 247.314 82.5117 247.986C83.1976 248.644 83.6839 249.436 83.9704 250.361C84.2753 251.273 84.4232 252.251 84.4141 253.295C84.421 254.342 84.3527 255.345 84.2093 256.304C84.0659 257.263 83.8378 258.242 83.525 259.242C83.2282 260.243 82.7995 261.143 82.2388 261.942C81.6966 262.727 81 263.341 80.1492 263.786C79.3166 264.217 78.301 264.343 77.1022 264.164C75.9034 263.985 74.961 263.566 74.2751 262.908C73.6075 262.236 73.1212 261.444 72.8163 260.533C72.5298 259.607 72.3831 258.621 72.3762 257.574C72.3853 256.53 72.4616 255.528 72.605 254.569C72.7484 253.61 72.9685 252.63 73.2653 251.628C73.5781 250.629 74.0056 249.737 74.5479 248.952C75.1085 248.154 75.8051 247.539 76.6376 247.108C77.4885 246.663 78.5133 246.53 79.7121 246.71ZM77.4428 261.886C78.0342 261.975 78.5548 261.881 79.0046 261.605C79.4567 261.313 79.8377 260.896 80.1476 260.354C80.4757 259.799 80.7463 259.137 80.9594 258.368C81.1724 257.599 81.3446 256.775 81.4761 255.896C81.6075 255.017 81.6826 254.186 81.7015 253.405C81.7227 252.607 81.6576 251.895 81.5063 251.267C81.3709 250.643 81.1286 250.132 80.7791 249.737C80.4321 249.326 79.9629 249.076 79.3715 248.987C78.7641 248.896 78.2343 248.997 77.7822 249.289C77.3484 249.567 76.9674 249.984 76.6392 250.54C76.327 251.098 76.0644 251.761 75.8513 252.53C75.6407 253.283 75.4697 254.099 75.3382 254.978C75.2068 255.857 75.1305 256.695 75.1092 257.493C75.088 258.29 75.1451 259.002 75.2805 259.627C75.4342 260.238 75.6765 260.748 76.0076 261.157C76.357 261.552 76.8354 261.795 77.4428 261.886ZM87.174 251.012C87.7494 251.098 88.316 251.134 88.8738 251.119C89.4316 251.104 89.943 251.017 90.4081 250.858C90.8891 250.701 91.3077 250.47 91.664 250.163C92.0362 249.86 92.3086 249.459 92.4809 248.962L94.7107 249.295L92.2012 266.079L89.2042 265.63L90.9752 253.786L86.8513 253.17L87.174 251.012Z" fill="#181818"/>
<g filter="url(#filter3_ddf_14_323)">
<path d="M110.513 95.799L109.913 95.7094L109.824 96.3088L102.144 147.665L102.055 148.265L102.654 148.354L111.645 149.699L112.245 149.788L112.334 149.189L115.708 126.627L137.885 129.944L134.512 152.505L134.422 153.104L135.022 153.194L144.013 154.538L144.612 154.628L144.702 154.029L152.381 102.672L152.47 102.073L151.871 101.983L142.88 100.639L142.281 100.549L142.191 101.149L139.226 120.977L117.049 117.66L120.013 97.8324L120.103 97.233L119.504 97.1434L110.513 95.799Z" fill="#EAEAEA" stroke="#EAEAEA" stroke-width="1.21212"/>
<path d="M162.66 103.596L162.061 103.507L161.971 104.106L154.292 155.463L154.202 156.062L154.802 156.152L163.793 157.496L164.392 157.586L164.482 156.986L172.161 105.63L172.25 105.03L171.651 104.941L162.66 103.596Z" fill="#EAEAEA" stroke="#EAEAEA" stroke-width="1.21212"/>
<path d="M182.656 106.586L182.057 106.497L181.967 107.096L174.288 158.453L174.199 159.052L174.798 159.142L183.789 160.486L184.388 160.576L184.478 159.976L187.335 140.867L200.402 142.821C204.096 143.374 207.239 143.31 209.805 142.593C212.332 141.886 214.396 140.804 215.966 139.326C217.508 137.875 218.667 136.217 219.434 134.354C220.18 132.54 220.68 130.812 220.925 129.173C221.17 127.534 221.199 125.724 221.02 123.747C220.836 121.719 220.215 119.782 219.164 117.941C218.095 116.07 216.442 114.421 214.238 112.982C211.996 111.519 209.009 110.527 205.314 109.974L182.656 106.586ZM201.175 134.21L188.611 132.332L190.97 116.556L203.678 118.456C204.836 118.629 205.901 118.907 206.874 119.286C207.812 119.652 208.603 120.185 209.257 120.885C209.898 121.571 210.371 122.451 210.664 123.544C210.95 124.612 210.982 125.997 210.746 127.577C210.512 129.144 210.059 130.358 209.418 131.254C208.754 132.182 207.976 132.87 207.085 133.337C206.166 133.817 205.196 134.118 204.171 134.239C203.122 134.363 202.124 134.352 201.175 134.21Z" fill="#EAEAEA" stroke="#EAEAEA" stroke-width="1.21212"/>
<path d="M101.441 202.369L101.531 201.769L100.931 201.68L91.9405 200.335L91.332 200.244L91.2502 200.854C90.8156 204.096 91.0046 207.024 91.8407 209.625C92.6699 212.204 93.9645 214.42 95.728 216.265C97.4837 218.101 99.6397 219.584 102.186 220.719C104.722 221.85 107.479 222.636 110.453 223.081C113.042 223.468 115.629 223.542 118.213 223.304C120.814 223.064 123.207 222.426 125.389 221.385C127.585 220.337 129.453 218.843 130.989 216.91C132.548 214.948 133.536 212.472 133.979 209.513C134.189 208.109 134.185 206.676 133.97 205.216C133.753 203.745 133.297 202.33 132.605 200.973C131.91 199.611 130.983 198.361 129.83 197.221C128.666 196.071 127.255 195.096 125.604 194.293L125.597 194.29L125.59 194.286C124.94 193.991 123.865 193.522 122.367 192.882C120.87 192.241 119.339 191.583 117.774 190.908C116.209 190.233 114.795 189.618 113.532 189.062C112.293 188.517 111.564 188.198 111.356 188.111C109.682 187.342 108.41 186.395 107.51 185.286C106.665 184.244 106.336 182.914 106.588 181.225C106.768 180.023 107.187 179.113 107.813 178.448C108.478 177.742 109.257 177.224 110.156 176.889C111.078 176.546 112.077 176.348 113.154 176.3C114.252 176.25 115.308 176.302 116.322 176.454C119.352 176.907 121.692 177.936 123.391 179.501C125.019 181.001 125.775 183.296 125.529 186.528L125.486 187.09L126.044 187.173L135.035 188.517L135.634 188.607L135.724 188.008C136.137 185.243 135.961 182.703 135.175 180.401C134.396 178.122 133.18 176.118 131.528 174.395C129.881 172.676 127.887 171.278 125.555 170.199C123.229 169.123 120.695 168.382 117.958 167.972C115.604 167.62 113.228 167.579 110.833 167.847C108.424 168.117 106.203 168.757 104.173 169.773C102.132 170.795 100.401 172.209 98.9841 174.012C97.5457 175.841 96.637 178.106 96.2372 180.78C96.0284 182.177 96.0103 183.577 96.183 184.98C96.3589 186.409 96.8126 187.795 97.5369 189.137C98.2688 190.492 99.326 191.764 100.692 192.956C102.075 194.162 103.854 195.221 106.014 196.144C109.42 197.634 112.292 198.861 114.629 199.825C116.946 200.78 118.952 201.723 120.649 202.654L120.652 202.655C121.555 203.145 122.36 203.881 123.061 204.883C123.683 205.771 123.921 207.106 123.638 208.997C123.507 209.874 123.202 210.717 122.717 211.531C122.25 212.315 121.577 212.981 120.682 213.525C119.793 214.066 118.656 214.464 117.251 214.703C115.873 214.936 114.228 214.919 112.305 214.631C110.527 214.365 108.918 213.922 107.474 213.304C106.042 212.691 104.826 211.879 103.819 210.872C102.825 209.878 102.11 208.685 101.675 207.285C101.245 205.901 101.157 204.268 101.441 202.369Z" fill="#EAEAEA" stroke="#EAEAEA" stroke-width="1.21212"/>
<path d="M146.762 173.529L146.163 173.44L146.073 174.039L138.394 225.395L138.304 225.995L138.904 226.084L147.895 227.429L148.494 227.518L148.584 226.919L151.441 207.81L164.508 209.764C168.202 210.316 171.345 210.253 173.911 209.536C176.438 208.829 178.501 207.747 180.072 206.269C181.614 204.817 182.773 203.16 183.539 201.297C184.286 199.483 184.785 197.755 185.03 196.116C185.276 194.476 185.305 192.667 185.126 190.69C184.942 188.661 184.32 186.725 183.269 184.884C182.201 183.013 180.547 181.363 178.343 179.925C176.101 178.462 173.115 177.47 169.419 176.917L146.762 173.529ZM165.28 201.153L152.717 199.275L155.076 183.499L167.783 185.399C168.942 185.572 170.007 185.85 170.979 186.229C171.917 186.595 172.709 187.128 173.363 187.828C174.004 188.514 174.477 189.394 174.77 190.487C175.056 191.555 175.088 192.94 174.851 194.52C174.617 196.087 174.164 197.301 173.523 198.197C172.86 199.125 172.081 199.813 171.19 200.28C170.271 200.76 169.301 201.061 168.277 201.182C167.228 201.306 166.23 201.295 165.28 201.153Z" fill="#EAEAEA" stroke="#EAEAEA" stroke-width="1.21212"/>
<path d="M227.033 186.547C224.119 184.596 220.699 183.335 216.786 182.75C212.874 182.165 209.234 182.371 205.877 183.383C202.54 184.39 199.596 185.986 197.054 188.174C194.516 190.358 192.424 193.031 190.777 196.186C189.13 199.341 188.037 202.726 187.476 206.482C186.914 210.236 186.958 213.865 187.61 217.365C188.263 220.865 189.481 224.033 191.269 226.863C193.061 229.7 195.412 232.076 198.314 233.992C201.231 235.916 204.651 237.165 208.562 237.75C212.473 238.335 216.11 238.141 219.462 237.154C222.798 236.171 225.741 234.586 228.284 232.398C230.822 230.214 232.914 227.541 234.561 224.385C236.209 221.229 237.319 217.724 237.873 214.018C238.427 210.311 238.38 206.706 237.728 203.207C237.075 199.707 235.857 196.539 234.069 193.709C232.278 190.873 229.93 188.485 227.033 186.547ZM208.48 191.848C210.521 191.086 212.858 190.888 215.51 191.285C218.162 191.682 220.34 192.554 222.068 193.88C223.819 195.224 225.155 196.866 226.084 198.81C227.022 200.774 227.614 202.942 227.856 205.318C228.099 207.706 228.042 210.098 227.683 212.494C227.325 214.89 226.68 217.194 225.749 219.407C224.823 221.609 223.623 223.508 222.151 225.112C220.694 226.7 218.936 227.879 216.869 228.652C214.828 229.414 212.491 229.611 209.839 229.215C207.187 228.818 205.009 227.946 203.28 226.62C201.529 225.276 200.193 223.634 199.265 221.69C198.327 219.726 197.734 217.558 197.493 215.182C197.25 212.793 197.307 210.402 197.665 208.006C198.024 205.61 198.668 203.306 199.599 201.093C200.525 198.891 201.726 196.992 203.197 195.388C204.654 193.8 206.412 192.621 208.48 191.848Z" fill="#EAEAEA" stroke="#EAEAEA" stroke-width="1.21212"/>
<path d="M244.512 188.145L243.912 188.056L243.823 188.655L242.661 196.423L242.571 197.023L243.171 197.112L258.827 199.453L252.399 242.442L252.309 243.042L252.909 243.131L261.9 244.476L262.499 244.565L262.589 243.966L269.017 200.977L284.745 203.329L285.344 203.418L285.434 202.819L286.596 195.051L286.685 194.451L286.086 194.362L244.512 188.145Z" fill="#EAEAEA" stroke="#EAEAEA" stroke-width="1.21212"/>
</g>
<g filter="url(#filter4_dd_14_323)">
<path d="M110.423 96.3984L119.414 97.7428L116.36 118.17L139.736 121.666L142.79 101.238L151.781 102.583L144.102 153.939L135.111 152.595L138.574 129.434L115.198 125.938L111.735 149.099L102.744 147.755L110.423 96.3984Z" fill="#181818"/>
<path d="M162.57 104.196L171.561 105.54L163.882 156.897L154.891 155.552L162.57 104.196Z" fill="#181818"/>
<path d="M182.567 107.186L205.224 110.574C208.868 111.119 211.762 112.091 213.906 113.49C216.05 114.889 217.627 116.473 218.637 118.242C219.648 120.01 220.241 121.864 220.417 123.802C220.592 125.74 220.562 127.501 220.325 129.083C220.089 130.666 219.605 132.346 218.873 134.124C218.142 135.902 217.034 137.489 215.551 138.885C214.067 140.281 212.098 141.322 209.642 142.009C207.186 142.696 204.136 142.767 200.492 142.222L186.825 140.178L183.879 159.887L174.888 158.542L182.567 107.186ZM187.922 132.842L201.085 134.81C202.092 134.96 203.145 134.971 204.243 134.841C205.341 134.711 206.382 134.388 207.365 133.874C208.349 133.359 209.198 132.603 209.91 131.607C210.623 130.611 211.101 129.297 211.345 127.667C211.589 126.036 211.564 124.562 211.25 123.387C210.935 122.213 210.419 121.241 209.7 120.472C208.982 119.702 208.113 119.119 207.094 118.722C206.075 118.324 204.966 118.036 203.767 117.856L190.461 115.867L187.922 132.842Z" fill="#181818"/>
<path d="M100.842 202.279C100.548 204.245 100.633 205.973 101.096 207.464C101.559 208.955 102.324 210.234 103.39 211.3C104.456 212.367 105.738 213.22 107.236 213.861C108.733 214.502 110.393 214.958 112.215 215.231C114.181 215.525 115.894 215.548 117.352 215.3C118.811 215.052 120.026 214.634 120.996 214.043C121.967 213.453 122.714 212.719 123.238 211.841C123.761 210.964 124.094 210.045 124.238 209.086C124.532 207.12 124.305 205.603 123.558 204.536C122.811 203.468 121.938 202.664 120.941 202.122C119.219 201.178 117.192 200.226 114.86 199.264C112.528 198.303 109.66 197.077 106.255 195.588C104.135 194.682 102.414 193.653 101.091 192.499C99.7681 191.345 98.7613 190.129 98.0702 188.849C97.3792 187.569 96.9506 186.255 96.7846 184.906C96.6185 183.558 96.6359 182.212 96.8366 180.869C97.2238 178.28 98.0985 176.119 99.4606 174.386C100.823 172.653 102.484 171.296 104.445 170.315C106.405 169.333 108.557 168.711 110.901 168.449C113.244 168.187 115.567 168.228 117.868 168.572C120.554 168.973 123.031 169.699 125.301 170.749C127.57 171.8 129.5 173.154 131.091 174.814C132.681 176.473 133.851 178.401 134.601 180.597C135.352 182.792 135.526 185.233 135.124 187.918L126.133 186.574C126.388 183.229 125.611 180.723 123.801 179.055C121.992 177.387 119.529 176.321 116.412 175.855C115.357 175.697 114.262 175.643 113.127 175.694C111.991 175.745 110.931 175.954 109.944 176.321C108.958 176.689 108.1 177.259 107.372 178.033C106.644 178.806 106.182 179.84 105.989 181.135C105.716 182.957 106.067 184.468 107.039 185.667C108.012 186.867 109.37 187.866 111.113 188.666C111.298 188.743 112.023 189.06 113.288 189.617C114.553 190.173 115.968 190.789 117.534 191.465C119.1 192.14 120.631 192.798 122.129 193.439C123.626 194.079 124.696 194.546 125.339 194.838C126.938 195.616 128.293 196.554 129.404 197.652C130.514 198.749 131.401 199.948 132.065 201.249C132.728 202.549 133.163 203.901 133.37 205.304C133.577 206.708 133.58 208.081 133.379 209.424C132.949 212.301 131.994 214.671 130.515 216.533C129.035 218.395 127.24 219.83 125.128 220.838C123.016 221.846 120.693 222.467 118.158 222.701C115.623 222.934 113.084 222.861 110.543 222.481C107.618 222.044 104.914 221.272 102.432 220.165C99.9506 219.059 97.8618 217.619 96.166 215.846C94.4702 214.072 93.2207 211.937 92.4177 209.439C91.6146 206.941 91.4256 204.107 91.8509 200.935L100.842 202.279Z" fill="#181818"/>
<path d="M146.672 174.129L169.33 177.516C172.974 178.061 175.868 179.033 178.012 180.433C180.156 181.832 181.733 183.416 182.743 185.184C183.753 186.953 184.346 188.807 184.522 190.745C184.698 192.683 184.668 194.444 184.431 196.026C184.194 197.608 183.71 199.289 182.979 201.067C182.247 202.845 181.14 204.432 179.656 205.828C178.173 207.224 176.203 208.265 173.748 208.952C171.292 209.639 168.242 209.71 164.597 209.165L150.931 207.121L147.984 226.829L138.993 225.485L146.672 174.129ZM152.028 199.785L165.191 201.753C166.198 201.903 167.25 201.914 168.348 201.784C169.446 201.654 170.487 201.331 171.471 200.817C172.455 200.302 173.303 199.546 174.016 198.55C174.729 197.553 175.207 196.24 175.451 194.61C175.695 192.979 175.67 191.505 175.355 190.33C175.041 189.156 174.524 188.184 173.806 187.415C173.088 186.645 172.219 186.062 171.2 185.664C170.181 185.267 169.072 184.979 167.873 184.799L154.566 182.81L152.028 199.785Z" fill="#181818"/>
<path d="M216.697 183.349C220.533 183.923 223.866 185.156 226.696 187.05C229.526 188.944 231.813 191.271 233.557 194.032C235.301 196.793 236.493 199.889 237.132 203.318C237.771 206.747 237.819 210.284 237.274 213.928C236.729 217.572 235.638 221.013 234.024 224.105C232.409 227.197 230.364 229.808 227.889 231.938C225.413 234.068 222.547 235.613 219.291 236.572C216.034 237.532 212.488 237.724 208.652 237.151C204.816 236.577 201.481 235.356 198.648 233.486C195.814 231.616 193.525 229.3 191.781 226.539C190.037 223.778 188.845 220.683 188.206 217.254C187.567 213.825 187.523 210.264 188.075 206.572C188.627 202.879 189.7 199.559 191.314 196.467C192.929 193.375 194.974 190.764 197.449 188.633C199.925 186.503 202.792 184.947 206.052 183.963C209.313 182.98 212.861 182.775 216.697 183.349ZM215.6 190.686C212.866 190.277 210.422 190.475 208.267 191.281C206.113 192.086 204.274 193.318 202.751 194.978C201.228 196.638 199.991 198.598 199.041 200.858C198.09 203.118 197.432 205.471 197.066 207.916C196.7 210.362 196.642 212.804 196.89 215.243C197.138 217.683 197.747 219.918 198.718 221.951C199.688 223.984 201.086 225.7 202.911 227.101C204.737 228.501 207.016 229.406 209.749 229.814C212.482 230.223 214.926 230.025 217.081 229.219C219.236 228.414 221.075 227.181 222.598 225.522C224.121 223.862 225.357 221.902 226.308 219.642C227.259 217.382 227.917 215.029 228.283 212.584C228.648 210.138 228.707 207.696 228.459 205.257C228.211 202.817 227.602 200.581 226.631 198.549C225.66 196.516 224.262 194.8 222.437 193.399C220.612 191.999 218.333 191.094 215.6 190.686Z" fill="#181818"/>
<path d="M244.422 188.745L285.996 194.961L284.835 202.729L268.507 200.288L261.989 243.876L252.998 242.532L259.516 198.944L243.26 196.513L244.422 188.745Z" fill="#181818"/>
</g>
<g filter="url(#filter5_d_14_323)">
<path d="M88.2861 78.222C90.9344 78.618 93.4023 76.7922 93.7983 74.1439C94.1943 71.4955 92.3684 69.0277 89.7201 68.6317C87.0718 68.2357 84.6039 70.0615 84.2079 72.7098C83.8119 75.3582 85.6378 77.826 88.2861 78.222Z" fill="#F7F7F7"/>
</g>
<g filter="url(#filter6_d_14_323)">
<path d="M250.123 102.421C252.772 102.817 255.24 100.991 255.636 98.3426C256.032 95.6943 254.206 93.2264 251.557 92.8304C248.909 92.4344 246.441 94.2603 246.045 96.9086C245.649 99.5569 247.475 102.025 250.123 102.421Z" fill="#F7F7F7"/>
</g>
<g filter="url(#filter7_d_14_323)">
<path d="M314.052 183.064C316.7 183.46 319.168 181.635 319.564 178.986C319.96 176.338 318.134 173.87 315.486 173.474C312.838 173.078 310.37 174.904 309.974 177.552C309.578 180.201 311.404 182.668 314.052 183.064Z" fill="#F7F7F7"/>
</g>
<g filter="url(#filter8_d_14_323)">
<path d="M295.231 308.938C297.879 309.334 300.347 307.508 300.743 304.86C301.139 302.211 299.313 299.743 296.665 299.347C294.016 298.951 291.548 300.777 291.153 303.426C290.757 306.074 292.582 308.542 295.231 308.938Z" fill="#F7F7F7"/>
</g>
<g filter="url(#filter9_d_14_323)">
<path d="M60.0878 275.004C62.7361 275.4 65.204 273.574 65.6 270.925C65.996 268.277 64.1701 265.809 61.5218 265.413C58.8735 265.017 56.4056 266.843 56.0096 269.491C55.6136 272.14 57.4395 274.608 60.0878 275.004Z" fill="#F7F7F7"/>
</g>
<path d="M105.272 259.699L292.284 287.662" stroke="#181818" stroke-width="2.4" stroke-miterlimit="10"/>
<path d="M284.377 275.462L293.29 287.494L281.163 296.466" stroke="#181818" stroke-width="2.4" stroke-miterlimit="10"/>
<path d="M334.062 163.996L325.794 170.113L303.925 316.366L310.042 324.634L334.062 163.996Z" fill="url(#paint6_linear_14_323)"/>
<path d="M304.975 317.54L306.02 310.551L48.2792 272.012L47.2342 279.001C47.1195 279.769 47.5639 280.485 48.2353 280.585L303.554 318.762C304.226 318.862 304.858 318.319 304.975 317.54Z" fill="url(#paint7_linear_14_323)"/>
</g>
<defs>
<filter id="filter0_d_14_323" x="-43.1371" y="0.862793" width="460.649" height="438.241" filterUnits="userSpaceOnUse" color-interpolation-filters="sRGB">
<feFlood flood-opacity="0" result="BackgroundImageFix"/>
<feColorMatrix in="SourceAlpha" type="matrix" values="0 0 0 0 0 0 0 0 0 0 0 0 0 0 0 0 0 0 127 0" result="hardAlpha"/>
<feOffset dy="30"/>
<feGaussianBlur stdDeviation="39.5"/>
<feComposite in2="hardAlpha" operator="out"/>
<feColorMatrix type="matrix" values="0 0 0 0 0.483333 0 0 0 0 0.03625 0 0 0 0 0.438625 0 0 0 0.35 0"/>
<feBlend mode="normal" in2="BackgroundImageFix" result="effect1_dropShadow_14_323"/>
<feBlend mode="normal" in="SourceGraphic" in2="effect1_dropShadow_14_323" result="shape"/>
</filter>
<filter id="filter1_d_14_323" x="66.92" y="77.3323" width="239.686" height="194.008" filterUnits="userSpaceOnUse" color-interpolation-filters="sRGB">
<feFlood flood-opacity="0" result="BackgroundImageFix"/>
<feColorMatrix in="SourceAlpha" type="matrix" values="0 0 0 0 0 0 0 0 0 0 0 0 0 0 0 0 0 0 127 0" result="hardAlpha"/>
<feOffset dx="-2.42424" dy="2.42424"/>
<feGaussianBlur stdDeviation="3.63636"/>
<feColorMatrix type="matrix" values="0 0 0 0 0 0 0 0 0 0 0 0 0 0 0 0 0 0 0.15 0"/>
<feBlend mode="normal" in2="BackgroundImageFix" result="effect1_dropShadow_14_323"/>
<feBlend mode="normal" in="SourceGraphic" in2="effect1_dropShadow_14_323" result="shape"/>
</filter>
<filter id="filter2_d_14_323" x="75.4049" y="73.6959" width="234.838" height="189.159" filterUnits="userSpaceOnUse" color-interpolation-filters="sRGB">
<feFlood flood-opacity="0" result="BackgroundImageFix"/>
<feColorMatrix in="SourceAlpha" type="matrix" values="0 0 0 0 0 0 0 0 0 0 0 0 0 0 0 0 0 0 127 0" result="hardAlpha"/>
<feOffset dx="3.63636" dy="-3.63636"/>
<feGaussianBlur stdDeviation="2.42424"/>
<feColorMatrix type="matrix" values="0 0 0 0 1 0 0 0 0 1 0 0 0 0 1 0 0 0 0.8 0"/>
<feBlend mode="normal" in2="BackgroundImageFix" result="effect1_dropShadow_14_323"/>
<feBlend mode="normal" in="SourceGraphic" in2="effect1_dropShadow_14_323" result="shape"/>
</filter>
<filter id="filter3_ddf_14_323" x="85.5695" y="90.1719" width="206.653" height="161.143" filterUnits="userSpaceOnUse" color-interpolation-filters="sRGB">
<feFlood flood-opacity="0" result="BackgroundImageFix"/>
<feColorMatrix in="SourceAlpha" type="matrix" values="0 0 0 0 0 0 0 0 0 0 0 0 0 0 0 0 0 0 127 0" result="hardAlpha"/>
<feOffset dx="2.42424" dy="-2.42424"/>
<feGaussianBlur stdDeviation="1.21212"/>
<feColorMatrix type="matrix" values="0 0 0 0 1 0 0 0 0 1 0 0 0 0 1 0 0 0 1 0"/>
<feBlend mode="normal" in2="BackgroundImageFix" result="effect1_dropShadow_14_323"/>
<feColorMatrix in="SourceAlpha" type="matrix" values="0 0 0 0 0 0 0 0 0 0 0 0 0 0 0 0 0 0 127 0" result="hardAlpha"/>
<feOffset dx="-1.21212" dy="2.42424"/>
<feGaussianBlur stdDeviation="1.81818"/>
<feComposite in2="hardAlpha" operator="out"/>
<feColorMatrix type="matrix" values="0 0 0 0 0 0 0 0 0 0 0 0 0 0 0 0 0 0 0.25 0"/>
<feBlend mode="normal" in2="effect1_dropShadow_14_323" result="effect2_dropShadow_14_323"/>
<feBlend mode="normal" in="SourceGraphic" in2="effect2_dropShadow_14_323" result="shape"/>
<feGaussianBlur stdDeviation="1.21212" result="effect3_foregroundBlur_14_323"/>
</filter>
<filter id="filter4_dd_14_323" x="86.7816" y="91.55" width="204.063" height="158.387" filterUnits="userSpaceOnUse" color-interpolation-filters="sRGB">
<feFlood flood-opacity="0" result="BackgroundImageFix"/>
<feColorMatrix in="SourceAlpha" type="matrix" values="0 0 0 0 0 0 0 0 0 0 0 0 0 0 0 0 0 0 127 0" result="hardAlpha"/>
<feOffset dx="2.42424" dy="-2.42424"/>
<feGaussianBlur stdDeviation="1.21212"/>
<feColorMatrix type="matrix" values="0 0 0 0 1 0 0 0 0 1 0 0 0 0 1 0 0 0 1 0"/>
<feBlend mode="normal" in2="BackgroundImageFix" result="effect1_dropShadow_14_323"/>
<feColorMatrix in="SourceAlpha" type="matrix" values="0 0 0 0 0 0 0 0 0 0 0 0 0 0 0 0 0 0 127 0" result="hardAlpha"/>
<feOffset dx="-1.21212" dy="2.42424"/>
<feGaussianBlur stdDeviation="1.81818"/>
<feComposite in2="hardAlpha" operator="out"/>
<feColorMatrix type="matrix" values="0 0 0 0 0 0 0 0 0 0 0 0 0 0 0 0 0 0 0.25 0"/>
<feBlend mode="normal" in2="effect1_dropShadow_14_323" result="effect2_dropShadow_14_323"/>
<feBlend mode="normal" in="SourceGraphic" in2="effect2_dropShadow_14_323" result="shape"/>
</filter>
<filter id="filter5_d_14_323" x="79.3054" y="67.3656" width="14.5468" height="14.5467" filterUnits="userSpaceOnUse" color-interpolation-filters="sRGB">
<feFlood flood-opacity="0" result="BackgroundImageFix"/>
<feColorMatrix in="SourceAlpha" type="matrix" values="0 0 0 0 0 0 0 0 0 0 0 0 0 0 0 0 0 0 127 0" result="hardAlpha"/>
<feOffset dx="-2.42424" dy="1.21212"/>
<feGaussianBlur stdDeviation="1.21212"/>
<feColorMatrix type="matrix" values="0 0 0 0 0 0 0 0 0 0 0 0 0 0 0 0 0 0 0.11 0"/>
<feBlend mode="normal" in2="BackgroundImageFix" result="effect1_dropShadow_14_323"/>
<feBlend mode="normal" in="SourceGraphic" in2="effect1_dropShadow_14_323" result="shape"/>
</filter>
<filter id="filter6_d_14_323" x="241.143" y="91.5644" width="14.5468" height="14.5467" filterUnits="userSpaceOnUse" color-interpolation-filters="sRGB">
<feFlood flood-opacity="0" result="BackgroundImageFix"/>
<feColorMatrix in="SourceAlpha" type="matrix" values="0 0 0 0 0 0 0 0 0 0 0 0 0 0 0 0 0 0 127 0" result="hardAlpha"/>
<feOffset dx="-2.42424" dy="1.21212"/>
<feGaussianBlur stdDeviation="1.21212"/>
<feColorMatrix type="matrix" values="0 0 0 0 0 0 0 0 0 0 0 0 0 0 0 0 0 0 0.11 0"/>
<feBlend mode="normal" in2="BackgroundImageFix" result="effect1_dropShadow_14_323"/>
<feBlend mode="normal" in="SourceGraphic" in2="effect1_dropShadow_14_323" result="shape"/>
</filter>
<filter id="filter7_d_14_323" x="305.071" y="172.208" width="14.5468" height="14.5467" filterUnits="userSpaceOnUse" color-interpolation-filters="sRGB">
<feFlood flood-opacity="0" result="BackgroundImageFix"/>
<feColorMatrix in="SourceAlpha" type="matrix" values="0 0 0 0 0 0 0 0 0 0 0 0 0 0 0 0 0 0 127 0" result="hardAlpha"/>
<feOffset dx="-2.42424" dy="1.21212"/>
<feGaussianBlur stdDeviation="1.21212"/>
<feColorMatrix type="matrix" values="0 0 0 0 0 0 0 0 0 0 0 0 0 0 0 0 0 0 0.11 0"/>
<feBlend mode="normal" in2="BackgroundImageFix" result="effect1_dropShadow_14_323"/>
<feBlend mode="normal" in="SourceGraphic" in2="effect1_dropShadow_14_323" result="shape"/>
</filter>
<filter id="filter8_d_14_323" x="286.25" y="298.081" width="14.5468" height="14.5468" filterUnits="userSpaceOnUse" color-interpolation-filters="sRGB">
<feFlood flood-opacity="0" result="BackgroundImageFix"/>
<feColorMatrix in="SourceAlpha" type="matrix" values="0 0 0 0 0 0 0 0 0 0 0 0 0 0 0 0 0 0 127 0" result="hardAlpha"/>
<feOffset dx="-2.42424" dy="1.21212"/>
<feGaussianBlur stdDeviation="1.21212"/>
<feColorMatrix type="matrix" values="0 0 0 0 0 0 0 0 0 0 0 0 0 0 0 0 0 0 0.11 0"/>
<feBlend mode="normal" in2="BackgroundImageFix" result="effect1_dropShadow_14_323"/>
<feBlend mode="normal" in="SourceGraphic" in2="effect1_dropShadow_14_323" result="shape"/>
</filter>
<filter id="filter9_d_14_323" x="51.1071" y="264.147" width="14.5468" height="14.5468" filterUnits="userSpaceOnUse" color-interpolation-filters="sRGB">
<feFlood flood-opacity="0" result="BackgroundImageFix"/>
<feColorMatrix in="SourceAlpha" type="matrix" values="0 0 0 0 0 0 0 0 0 0 0 0 0 0 0 0 0 0 127 0" result="hardAlpha"/>
<feOffset dx="-2.42424" dy="1.21212"/>
<feGaussianBlur stdDeviation="1.21212"/>
<feColorMatrix type="matrix" values="0 0 0 0 0 0 0 0 0 0 0 0 0 0 0 0 0 0 0.11 0"/>
<feBlend mode="normal" in2="BackgroundImageFix" result="effect1_dropShadow_14_323"/>
<feBlend mode="normal" in="SourceGraphic" in2="effect1_dropShadow_14_323" result="shape"/>
</filter>
<linearGradient id="paint0_linear_14_323" x1="64.9723" y1="170.945" x2="52.1332" y2="169.026" gradientUnits="userSpaceOnUse">
<stop stop-color="#FCFCFC" stop-opacity="0.79"/>
<stop offset="0.645833" stop-color="white" stop-opacity="0.8"/>
</linearGradient>
<linearGradient id="paint1_linear_14_323" x1="171.903" y1="76.3733" x2="173.823" y2="63.5342" gradientUnits="userSpaceOnUse">
<stop stop-color="#EAEAEA" stop-opacity="0.1"/>
<stop offset="1" stop-opacity="0.1"/>
</linearGradient>
<linearGradient id="paint2_linear_14_323" x1="292.954" y1="164.332" x2="294.874" y2="151.493" gradientUnits="userSpaceOnUse">
<stop stop-color="#EAEAEA" stop-opacity="0.1"/>
<stop offset="0.18" stop-color="#9C9C9C" stop-opacity="0.1"/>
<stop offset="0.58" stop-color="#262626" stop-opacity="0.1"/>
<stop offset="1" stop-opacity="0.1"/>
</linearGradient>
<linearGradient id="paint3_linear_14_323" x1="258.1" y1="120.465" x2="270.951" y2="122.387" gradientUnits="userSpaceOnUse">
<stop stop-color="#EAEAEA" stop-opacity="0.1"/>
<stop offset="0.18" stop-color="#9C9C9C" stop-opacity="0.1"/>
<stop offset="0.58" stop-color="#262626" stop-opacity="0.1"/>
<stop offset="1" stop-opacity="0.1"/>
</linearGradient>
<linearGradient id="paint4_linear_14_323" x1="56.1141" y1="168.959" x2="325.569" y2="211.039" gradientUnits="userSpaceOnUse">
<stop stop-color="white" stop-opacity="0.4"/>
<stop offset="0.27" stop-color="#A3A3A3" stop-opacity="0.29"/>
<stop offset="0.58" stop-color="#4A4A4A" stop-opacity="0.19"/>
<stop offset="0.84" stop-color="#131313" stop-opacity="0.12"/>
<stop offset="1" stop-opacity="0.1"/>
</linearGradient>
<linearGradient id="paint5_linear_14_323" x1="176.126" y1="298.127" x2="174.205" y2="310.978" gradientUnits="userSpaceOnUse">
<stop stop-color="white" stop-opacity="0.4"/>
<stop offset="0.45" stop-color="#FAFAFA" stop-opacity="0.39"/>
<stop offset="0.61" stop-color="#E9E9E9" stop-opacity="0.37"/>
<stop offset="0.72" stop-color="#CBCBCB" stop-opacity="0.34"/>
<stop offset="0.82" stop-color="#A1A1A1" stop-opacity="0.29"/>
<stop offset="0.9" stop-color="#6A6A6A" stop-opacity="0.23"/>
<stop offset="0.97" stop-color="#282828" stop-opacity="0.15"/>
<stop offset="1" stop-opacity="0.1"/>
</linearGradient>
<linearGradient id="paint6_linear_14_323" x1="314.512" y1="243.188" x2="327.351" y2="245.107" gradientUnits="userSpaceOnUse">
<stop stop-color="#EAEAEA" stop-opacity="0.1"/>
<stop offset="0.18" stop-color="#9C9C9C" stop-opacity="0.1"/>
<stop offset="0.58" stop-color="#262626" stop-opacity="0.1"/>
<stop offset="1" stop-opacity="0.1"/>
</linearGradient>
<linearGradient id="paint7_linear_14_323" x1="177.211" y1="290.874" x2="174.97" y2="305.859" gradientUnits="userSpaceOnUse">
<stop stop-color="#EAEAEA" stop-opacity="0.1"/>
<stop offset="1" stop-opacity="0.1"/>
</linearGradient>
</defs>
</svg>
