<svg width="375" height="400" viewBox="0 0 375 400" fill="none" xmlns="http://www.w3.org/2000/svg">
<g filter="url(#filter0_d_127_4357)">
<path d="M33.0946 285.497L24.9772 153.747C21.6757 100.16 62.4296 54.0547 116.016 50.7531L120.807 50.458C173.1 47.2361 218.421 86.1868 223.519 137.907L338.561 130.819C341.208 130.656 343.484 132.668 343.647 135.315L351.69 265.867C351.854 268.514 349.842 270.79 347.195 270.954L38.1807 289.992C35.5337 290.156 33.2577 288.144 33.0946 285.497Z" fill="#F4F4F4" stroke="#F2F2F2" stroke-width="0.6" stroke-miterlimit="10"/>
<path d="M220.207 141.718C217.028 90.1199 172.626 50.8721 121.028 54.0512L116.237 54.3463C64.6392 57.5254 25.3914 101.927 28.5704 153.525L36.5402 282.88C36.6627 284.868 38.3666 286.374 40.3548 286.252L344.578 267.508C346.566 267.385 348.072 265.682 347.95 263.693L340.201 137.932C340.079 135.944 338.375 134.438 336.387 134.56L220.207 141.718Z" fill="url(#paint0_linear_127_4357)"/>
<path d="M43.4314 277.646L35.7568 153.082C32.8227 105.461 69.0584 64.4668 116.68 61.5328L121.471 61.2376C169.093 58.3035 210.087 94.5392 213.021 142.161L213.39 148.15C213.43 148.808 214.002 149.314 214.661 149.273L332.039 142.042C332.697 142.001 333.27 142.507 333.31 143.166L340.468 259.345C340.509 260.004 340.003 260.576 339.344 260.617L44.7029 278.77C44.0442 278.811 43.472 278.305 43.4314 277.646Z" fill="#EAEAEA" stroke="#EAEAEA" stroke-width="4.8" stroke-miterlimit="10"/>
<g filter="url(#filter1_dd_127_4357)">
<path d="M56.6911 261.4L50.2432 156.746C47.7589 116.424 78.4251 81.7304 118.747 79.2461L123.31 78.965C163.632 76.4807 198.325 107.147 200.809 147.469L201.969 166.29C202.007 166.917 202.552 167.399 203.18 167.36L316.104 160.403L321.322 245.096L56.6911 261.4Z" fill="#EAEAEA"/>
</g>
<g filter="url(#filter2_ddf_127_4357)">
<path d="M77.9923 226.252C78.1134 228.216 78.552 229.872 79.3084 231.22C80.0647 232.568 81.069 233.648 82.3214 234.461C83.5737 235.273 84.9909 235.835 86.5731 236.147C88.1552 236.458 89.8566 236.557 91.6771 236.445C93.6414 236.324 95.3042 235.993 96.6655 235.453C98.0268 234.912 99.1165 234.256 99.9346 233.484C100.753 232.712 101.325 231.847 101.65 230.89C101.976 229.932 102.109 228.974 102.05 228.015C101.929 226.051 101.397 224.629 100.453 223.75C99.5091 222.87 98.4984 222.271 97.4207 221.953C95.5589 221.394 93.3998 220.89 90.9435 220.44C88.4872 219.99 85.4569 219.396 81.8525 218.656C79.6133 218.217 77.7343 217.575 76.2155 216.731C74.6967 215.887 73.4707 214.916 72.5375 213.82C71.6043 212.723 70.9182 211.539 70.4792 210.267C70.0401 208.996 69.7793 207.69 69.6967 206.348C69.5373 203.761 69.9383 201.488 70.8996 199.529C71.861 197.57 73.1896 195.914 74.8855 194.559C76.5814 193.204 78.5367 192.158 80.7516 191.42C82.9664 190.682 85.2237 190.243 87.5233 190.101C90.2062 189.936 92.7548 190.127 95.1691 190.676C97.5834 191.225 99.7317 192.138 101.614 193.417C103.496 194.695 105.027 196.32 106.206 198.292C107.386 200.263 108.058 202.59 108.223 205.273L99.2405 205.826C98.7973 202.535 97.5275 200.269 95.4312 199.028C93.3349 197.786 90.7297 197.261 87.6156 197.453C86.5616 197.518 85.4903 197.692 84.4017 197.976C83.313 198.259 82.3291 198.681 81.4498 199.24C80.5705 199.799 79.858 200.528 79.3123 201.427C78.7665 202.327 78.5335 203.423 78.6132 204.717C78.7254 206.537 79.3761 207.928 80.5655 208.888C81.7548 209.849 83.276 210.537 85.129 210.952C85.3236 210.988 86.0907 211.145 87.4303 211.423C88.77 211.701 90.2675 212.006 91.923 212.337C93.5785 212.667 95.1973 212.988 96.7794 213.3C98.3616 213.611 99.4939 213.842 100.176 213.992C101.886 214.416 103.391 215.044 104.693 215.878C105.995 216.712 107.101 217.689 108.012 218.811C108.922 219.934 109.623 221.153 110.113 222.469C110.602 223.786 110.889 225.114 110.971 226.456C111.148 229.33 110.713 231.822 109.664 233.93C108.616 236.039 107.174 237.799 105.337 239.211C103.5 240.622 101.379 241.703 98.9723 242.452C96.5658 243.201 94.093 243.654 91.5538 243.811C88.6314 243.991 85.8544 243.801 83.2231 243.242C80.5917 242.683 78.2721 241.72 76.2642 240.353C74.2563 238.985 72.6059 237.175 71.3129 234.923C70.02 232.67 69.2521 229.964 69.0094 226.805L77.9923 226.252Z" fill="#EAEAEA"/>
<path d="M111.673 189.839L153.21 187.28L153.688 195.041L137.375 196.047L140.058 239.596L131.075 240.149L128.392 196.6L112.151 197.601L111.673 189.839Z" fill="#EAEAEA"/>
<path d="M158.6 186.948L167.583 186.395L169.425 216.29C169.531 218.015 169.723 219.758 170 221.521C170.276 223.283 170.854 224.846 171.731 226.211C172.609 227.576 173.878 228.664 175.539 229.475C177.2 230.286 179.492 230.602 182.414 230.422C185.337 230.242 187.573 229.647 189.121 228.638C190.67 227.629 191.796 226.393 192.5 224.931C193.203 223.469 193.584 221.847 193.643 220.064C193.701 218.281 193.677 216.527 193.571 214.802L191.729 184.907L200.712 184.354L202.736 217.195C202.939 220.501 202.613 223.407 201.758 225.912C200.902 228.417 199.603 230.553 197.86 232.32C196.118 234.086 193.978 235.456 191.441 236.43C188.904 237.404 186.055 237.989 182.893 238.183C179.731 238.378 176.831 238.148 174.194 237.493C171.556 236.838 169.265 235.741 167.318 234.202C165.372 232.662 163.82 230.702 162.664 228.321C161.507 225.939 160.827 223.096 160.623 219.79L158.6 186.948Z" fill="#EAEAEA"/>
<path d="M211.048 183.717L232.32 182.406C236.249 182.164 239.692 182.625 242.649 183.79C245.606 184.954 248.066 186.642 250.03 188.853C251.994 191.065 253.515 193.7 254.593 196.76C255.671 199.819 256.319 203.122 256.538 206.667C256.756 210.212 256.518 213.569 255.824 216.738C255.129 219.907 253.943 222.709 252.266 225.145C250.589 227.58 248.354 229.557 245.562 231.076C242.77 232.595 239.41 233.475 235.481 233.717L214.21 235.028L211.048 183.717ZM222.741 227.144L231.58 226.599C235.078 226.384 237.912 225.74 240.082 224.669C242.252 223.597 243.921 222.196 245.089 220.465C246.256 218.734 246.999 216.741 247.317 214.485C247.635 212.229 247.714 209.807 247.555 207.22C247.396 204.633 247.02 202.24 246.427 200.04C245.835 197.84 244.853 195.953 243.482 194.379C242.11 192.804 240.282 191.618 237.996 190.821C235.711 190.024 232.82 189.733 229.322 189.949L220.483 190.493L222.741 227.144Z" fill="#EAEAEA"/>
<path d="M278.222 210.885L257.041 180.883L267.461 180.241L282.461 202.401L294.41 178.581L304.471 177.961L287.205 210.332L288.445 230.454L279.462 231.007L278.222 210.885Z" fill="#EAEAEA"/>
</g>
<g filter="url(#filter3_dd_127_4357)">
<path d="M78.9904 226.19C79.1115 228.154 79.5501 229.81 80.3065 231.159C81.0628 232.507 82.0671 233.587 83.3195 234.399C84.5718 235.212 85.989 235.774 87.5712 236.085C89.1533 236.396 90.8547 236.496 92.6752 236.384C94.6395 236.263 96.3023 235.932 97.6636 235.391C99.0249 234.85 100.115 234.194 100.933 233.422C101.751 232.651 102.323 231.786 102.648 230.828C102.974 229.87 103.107 228.912 103.048 227.954C102.927 225.99 102.395 224.568 101.451 223.688C100.507 222.808 99.4965 222.21 98.4189 221.891C96.557 221.333 94.3979 220.828 91.9416 220.379C89.4853 219.929 86.455 219.334 82.8506 218.594C80.6114 218.155 78.7324 217.513 77.2136 216.669C75.6948 215.825 74.4688 214.855 73.5356 213.758C72.6024 212.661 71.9163 211.477 71.4773 210.206C71.0383 208.934 70.7774 207.628 70.6948 206.287C70.5354 203.699 70.9364 201.426 71.8977 199.468C72.8591 197.509 74.1877 195.852 75.8836 194.497C77.5795 193.142 79.5349 192.096 81.7497 191.358C83.9645 190.621 86.2218 190.181 88.5214 190.04C91.2043 189.874 93.7529 190.066 96.1672 190.614C98.5815 191.163 100.73 192.077 102.612 193.355C104.494 194.634 106.025 196.259 107.204 198.23C108.384 200.201 109.056 202.528 109.222 205.211L100.239 205.765C99.7954 202.474 98.5256 200.208 96.4293 198.966C94.333 197.725 91.7278 197.2 88.6137 197.392C87.5597 197.457 86.4884 197.631 85.3998 197.914C84.3111 198.198 83.3272 198.619 82.4479 199.178C81.5686 199.737 80.8561 200.467 80.3104 201.366C79.7646 202.265 79.5316 203.362 79.6113 204.655C79.7235 206.476 80.3742 207.866 81.5636 208.827C82.7529 209.788 84.2741 210.475 86.1271 210.89C86.3217 210.926 87.0888 211.083 88.4284 211.362C89.7681 211.64 91.2656 211.944 92.9211 212.275C94.5766 212.606 96.1954 212.927 97.7775 213.238C99.3597 213.55 100.492 213.78 101.175 213.931C102.884 214.354 104.389 214.983 105.691 215.816C106.993 216.65 108.099 217.628 109.01 218.75C109.92 219.872 110.621 221.091 111.111 222.408C111.601 223.724 111.887 225.053 111.969 226.394C112.147 229.269 111.711 231.76 110.663 233.869C109.614 235.977 108.172 237.737 106.335 239.149C104.498 240.561 102.377 241.641 99.9704 242.391C97.5639 243.14 95.0911 243.593 92.5519 243.749C89.6295 243.929 86.8526 243.74 84.2212 243.181C81.5898 242.621 79.2702 241.658 77.2623 240.291C75.2544 238.924 73.604 237.114 72.311 234.861C71.0181 232.608 70.2502 229.903 70.0075 226.744L78.9904 226.19Z" fill="#181818"/>
<path d="M112.671 189.778L154.208 187.219L154.686 194.98L138.373 195.985L141.057 239.534L132.074 240.088L129.39 196.538L113.149 197.539L112.671 189.778Z" fill="#181818"/>
<path d="M159.598 186.887L168.581 186.333L170.423 216.229C170.529 217.953 170.721 219.697 170.998 221.459C171.275 223.221 171.852 224.785 172.729 226.15C173.607 227.514 174.876 228.602 176.537 229.414C178.198 230.225 180.49 230.541 183.413 230.361C186.335 230.18 188.571 229.586 190.12 228.577C191.668 227.568 192.795 226.332 193.498 224.87C194.201 223.408 194.582 221.785 194.641 220.002C194.699 218.219 194.675 216.466 194.569 214.741L192.727 184.846L201.71 184.292L203.734 217.134C203.937 220.44 203.611 223.345 202.756 225.85C201.9 228.356 200.601 230.492 198.858 232.258C197.116 234.025 194.976 235.395 192.439 236.369C189.902 237.343 187.053 237.927 183.891 238.122C180.729 238.317 177.829 238.087 175.192 237.431C172.555 236.776 170.263 235.679 168.316 234.14C166.37 232.601 164.819 230.64 163.662 228.259C162.505 225.878 161.825 223.034 161.621 219.728L159.598 186.887Z" fill="#181818"/>
<path d="M212.047 183.655L233.318 182.345C237.247 182.103 240.69 182.564 243.647 183.728C246.604 184.892 249.065 186.58 251.028 188.792C252.992 191.003 254.513 193.639 255.591 196.698C256.669 199.758 257.318 203.06 257.536 206.605C257.754 210.151 257.516 213.508 256.822 216.676C256.128 219.845 254.942 222.647 253.264 225.083C251.587 227.519 249.352 229.496 246.56 231.014C243.768 232.533 240.408 233.413 236.48 233.655L215.208 234.966L212.047 183.655ZM223.739 227.082L232.579 226.538C236.076 226.322 238.91 225.679 241.08 224.607C243.25 223.536 244.919 222.135 246.087 220.404C247.255 218.672 247.997 216.679 248.315 214.423C248.633 212.167 248.712 209.746 248.553 207.159C248.394 204.572 248.018 202.178 247.425 199.979C246.833 197.779 245.851 195.892 244.48 194.317C243.108 192.742 241.28 191.557 238.994 190.76C236.709 189.963 233.818 189.672 230.32 189.887L221.481 190.432L223.739 227.082Z" fill="#181818"/>
<path d="M279.22 210.824L258.039 180.822L268.46 180.18L283.459 202.339L295.409 178.519L305.469 177.899L288.203 210.27L289.443 230.392L280.46 230.946L279.22 210.824Z" fill="#181818"/>
</g>
<g filter="url(#filter4_d_127_4357)">
<path d="M52.8656 274.66C55.5116 274.497 57.5244 272.22 57.3614 269.574C57.1984 266.928 54.9212 264.916 52.2753 265.079C49.6293 265.242 47.6165 267.519 47.7796 270.165C47.9426 272.811 50.2197 274.823 52.8656 274.66Z" fill="#F7F7F7"/>
</g>
<g filter="url(#filter5_d_127_4357)">
<path d="M333.134 257.393C335.78 257.23 337.793 254.952 337.63 252.307C337.467 249.661 335.19 247.648 332.544 247.811C329.898 247.974 327.885 250.251 328.048 252.897C328.211 255.543 330.488 257.556 333.134 257.393Z" fill="#F7F7F7"/>
</g>
<g filter="url(#filter6_d_127_4357)">
<path d="M326.862 155.585C329.508 155.422 331.52 153.145 331.357 150.499C331.194 147.853 328.917 145.841 326.271 146.004C323.625 146.167 321.613 148.444 321.776 151.09C321.939 153.736 324.216 155.749 326.862 155.585Z" fill="#F7F7F7"/>
</g>
<g filter="url(#filter7_d_127_4357)">
<path d="M121.024 73.4881C123.669 73.325 125.682 71.0479 125.519 68.402C125.356 65.756 123.079 63.7432 120.433 63.9062C117.787 64.0693 115.774 66.3464 115.937 68.9923C116.1 71.6383 118.378 73.6511 121.024 73.4881Z" fill="#F7F7F7"/>
</g>
<g filter="url(#filter8_d_127_4357)">
<path d="M125.712 167.236C114.518 158.149 98.0052 159.166 88.0012 169.56L85.6412 131.256C95.6349 120.863 112.147 119.846 123.352 128.932L125.712 167.236Z" fill="#EAEAEA" stroke="#181818" stroke-width="2.4" stroke-linejoin="round"/>
<path d="M163.412 164.913C152.218 155.826 135.705 156.844 125.701 167.237L123.341 128.933C133.335 118.54 149.848 117.523 161.052 126.609L163.412 164.913Z" fill="#EAEAEA" stroke="#181818" stroke-width="2.4" stroke-linejoin="round"/>
</g>
<g filter="url(#filter9_d_127_4357)">
<path d="M125.712 167.236C114.518 158.149 98.0052 159.166 88.0012 169.56L85.6412 131.256C95.6349 120.863 112.147 119.846 123.352 128.932L125.712 167.236Z" fill="#EAEAEA" stroke="#181818" stroke-width="2.4" stroke-linejoin="round"/>
<path d="M163.412 164.913C152.218 155.826 135.705 156.844 125.701 167.237L123.341 128.933C133.335 118.54 149.848 117.523 161.052 126.609L163.412 164.913Z" fill="#EAEAEA" stroke="#181818" stroke-width="2.4" stroke-linejoin="round"/>
</g>
<path d="M348.171 267.287L343.085 262.791L41.2573 281.387L36.7616 286.473L348.171 267.287Z" fill="url(#paint1_linear_127_4357)"/>
<path d="M220.207 141.718L215.711 146.804L331.891 139.646L336.387 134.56L220.207 141.718Z" fill="url(#paint2_linear_127_4357)"/>
<path d="M342.864 259.198L342.568 254.407L40.7408 273.003L41.036 277.794C41.1585 279.782 42.8623 281.288 44.8505 281.166L339.492 263.012C341.48 262.89 342.986 261.186 342.864 259.198Z" fill="url(#paint3_linear_127_4357)"/>
<path d="M114.282 93.6717C115.48 93.5979 116.471 93.8173 117.256 94.33C118.056 94.8258 118.691 95.492 119.159 96.3288C119.642 97.1486 119.987 98.0652 120.194 99.0784C120.417 100.091 120.558 101.076 120.617 102.034C120.676 102.992 120.657 103.987 120.56 105.019C120.479 106.05 120.25 107.01 119.872 107.899C119.509 108.771 118.961 109.51 118.229 110.116C117.512 110.705 116.555 111.037 115.357 111.111C114.159 111.184 113.16 110.973 112.36 110.478C111.575 109.965 110.941 109.299 110.458 108.479C109.989 107.642 109.644 106.718 109.421 105.705C109.214 104.692 109.082 103.706 109.023 102.748C108.964 101.79 108.974 100.796 109.055 99.7646C109.152 98.7327 109.382 97.7808 109.745 96.9088C110.123 96.0199 110.67 95.2808 111.388 94.6916C112.12 94.0854 113.085 93.7455 114.282 93.6717ZM115.217 108.835C115.807 108.799 116.292 108.6 116.671 108.24C117.048 107.864 117.331 107.382 117.519 106.793C117.723 106.188 117.848 105.491 117.896 104.702C117.943 103.914 117.94 103.081 117.886 102.202C117.832 101.324 117.733 100.504 117.59 99.7438C117.446 98.9671 117.236 98.2908 116.96 97.7147C116.7 97.1376 116.36 96.6936 115.94 96.3829C115.519 96.0561 115.013 95.9109 114.423 95.9474C113.816 95.9847 113.323 96.1914 112.946 96.5673C112.583 96.9263 112.3 97.4086 112.097 98.0143C111.91 98.6189 111.793 99.3155 111.745 100.104C111.696 100.876 111.699 101.702 111.753 102.58C111.807 103.458 111.907 104.286 112.051 105.062C112.195 105.839 112.397 106.516 112.657 107.093C112.932 107.653 113.272 108.097 113.676 108.425C114.096 108.736 114.61 108.872 115.217 108.835ZM134.372 109.602L122.922 110.308C122.852 108.918 123.113 107.683 123.703 106.605C124.294 105.526 125.133 104.569 126.22 103.733C126.738 103.3 127.281 102.882 127.85 102.478C128.417 102.058 128.935 101.618 129.403 101.156C129.872 100.694 130.25 100.206 130.539 99.6913C130.827 99.1606 130.959 98.5674 130.935 97.9117C130.916 97.6082 130.856 97.2913 130.756 96.9609C130.67 96.6135 130.515 96.3024 130.289 96.0278C130.063 95.7371 129.76 95.5073 129.381 95.3383C129.001 95.1533 128.516 95.079 127.925 95.1155C127.382 95.1489 126.934 95.2887 126.58 95.5349C126.242 95.7642 125.972 96.0773 125.772 96.4744C125.587 96.8545 125.455 97.3035 125.374 97.8214C125.31 98.3383 125.288 98.8927 125.309 99.4846L122.578 99.6529C122.521 98.7266 122.588 97.8649 122.779 97.0676C122.986 96.2534 123.318 95.5435 123.778 94.9381C124.238 94.3327 124.809 93.8487 125.492 93.486C126.19 93.1063 127.01 92.8875 127.952 92.8294C128.974 92.7665 129.839 92.8815 130.546 93.1746C131.254 93.4676 131.831 93.8569 132.278 94.3423C132.74 94.8268 133.078 95.367 133.291 95.9631C133.503 96.5431 133.626 97.1046 133.659 97.6476C133.701 98.3183 133.634 98.9316 133.46 99.4873C133.286 100.043 133.038 100.563 132.715 101.048C132.391 101.517 132.017 101.957 131.594 102.368C131.17 102.778 130.729 103.166 130.271 103.531C129.812 103.896 129.353 104.245 128.893 104.578C128.432 104.911 128.004 105.242 127.607 105.571C127.227 105.899 126.895 106.24 126.612 106.594C126.329 106.932 126.142 107.288 126.053 107.662L134.221 107.159L134.372 109.602Z" fill="#181818"/>
</g>
<defs>
<filter id="filter0_d_127_4357" x="-54.51" y="0.97168" width="485.51" height="398.33" filterUnits="userSpaceOnUse" color-interpolation-filters="sRGB">
<feFlood flood-opacity="0" result="BackgroundImageFix"/>
<feColorMatrix in="SourceAlpha" type="matrix" values="0 0 0 0 0 0 0 0 0 0 0 0 0 0 0 0 0 0 127 0" result="hardAlpha"/>
<feOffset dy="30"/>
<feGaussianBlur stdDeviation="39.5"/>
<feComposite in2="hardAlpha" operator="out"/>
<feColorMatrix type="matrix" values="0 0 0 0 0.0303819 0 0 0 0 0.520833 0 0 0 0 0.167708 0 0 0 0.38 0"/>
<feBlend mode="normal" in2="BackgroundImageFix" result="effect1_dropShadow_127_4357"/>
<feBlend mode="normal" in="SourceGraphic" in2="effect1_dropShadow_127_4357" result="shape"/>
</filter>
<filter id="filter1_dd_127_4357" x="44.3882" y="74.0625" width="282.648" height="193.051" filterUnits="userSpaceOnUse" color-interpolation-filters="sRGB">
<feFlood flood-opacity="0" result="BackgroundImageFix"/>
<feColorMatrix in="SourceAlpha" type="matrix" values="0 0 0 0 0 0 0 0 0 0 0 0 0 0 0 0 0 0 127 0" result="hardAlpha"/>
<feOffset dx="2.85703" dy="-1.90469"/>
<feGaussianBlur stdDeviation="1.42852"/>
<feColorMatrix type="matrix" values="0 0 0 0 1 0 0 0 0 1 0 0 0 0 1 0 0 0 0.5 0"/>
<feBlend mode="normal" in2="BackgroundImageFix" result="effect1_dropShadow_127_4357"/>
<feColorMatrix in="SourceAlpha" type="matrix" values="0 0 0 0 0 0 0 0 0 0 0 0 0 0 0 0 0 0 127 0" result="hardAlpha"/>
<feOffset dx="-1.90469" dy="1.90469"/>
<feGaussianBlur stdDeviation="1.90469"/>
<feComposite in2="hardAlpha" operator="out"/>
<feColorMatrix type="matrix" values="0 0 0 0 0 0 0 0 0 0 0 0 0 0 0 0 0 0 0.12 0"/>
<feBlend mode="normal" in2="effect1_dropShadow_127_4357" result="effect2_dropShadow_127_4357"/>
<feBlend mode="normal" in="SourceGraphic" in2="effect2_dropShadow_127_4357" result="shape"/>
</filter>
<filter id="filter2_ddf_127_4357" x="63.1912" y="172.143" width="247.098" height="79.0069" filterUnits="userSpaceOnUse" color-interpolation-filters="sRGB">
<feFlood flood-opacity="0" result="BackgroundImageFix"/>
<feColorMatrix in="SourceAlpha" type="matrix" values="0 0 0 0 0 0 0 0 0 0 0 0 0 0 0 0 0 0 127 0" result="hardAlpha"/>
<feOffset dx="2.90909" dy="-2.90909"/>
<feGaussianBlur stdDeviation="1.45455"/>
<feColorMatrix type="matrix" values="0 0 0 0 1 0 0 0 0 1 0 0 0 0 1 0 0 0 1 0"/>
<feBlend mode="normal" in2="BackgroundImageFix" result="effect1_dropShadow_127_4357"/>
<feColorMatrix in="SourceAlpha" type="matrix" values="0 0 0 0 0 0 0 0 0 0 0 0 0 0 0 0 0 0 127 0" result="hardAlpha"/>
<feOffset dx="-1.45455" dy="2.90909"/>
<feGaussianBlur stdDeviation="2.18182"/>
<feComposite in2="hardAlpha" operator="out"/>
<feColorMatrix type="matrix" values="0 0 0 0 0 0 0 0 0 0 0 0 0 0 0 0 0 0 0.25 0"/>
<feBlend mode="normal" in2="effect1_dropShadow_127_4357" result="effect2_dropShadow_127_4357"/>
<feBlend mode="normal" in="SourceGraphic" in2="effect2_dropShadow_127_4357" result="shape"/>
<feGaussianBlur stdDeviation="1.45455" result="effect3_foregroundBlur_127_4357"/>
</filter>
<filter id="filter3_dd_127_4357" x="64.1893" y="176.445" width="247.098" height="74.6433" filterUnits="userSpaceOnUse" color-interpolation-filters="sRGB">
<feFlood flood-opacity="0" result="BackgroundImageFix"/>
<feColorMatrix in="SourceAlpha" type="matrix" values="0 0 0 0 0 0 0 0 0 0 0 0 0 0 0 0 0 0 127 0" result="hardAlpha"/>
<feOffset dx="2.90909" dy="2.4"/>
<feGaussianBlur stdDeviation="1.45455"/>
<feColorMatrix type="matrix" values="0 0 0 0 1 0 0 0 0 1 0 0 0 0 1 0 0 0 1 0"/>
<feBlend mode="normal" in2="BackgroundImageFix" result="effect1_dropShadow_127_4357"/>
<feColorMatrix in="SourceAlpha" type="matrix" values="0 0 0 0 0 0 0 0 0 0 0 0 0 0 0 0 0 0 127 0" result="hardAlpha"/>
<feOffset dx="-1.45455" dy="2.90909"/>
<feGaussianBlur stdDeviation="2.18182"/>
<feComposite in2="hardAlpha" operator="out"/>
<feColorMatrix type="matrix" values="0 0 0 0 0 0 0 0 0 0 0 0 0 0 0 0 0 0 0.25 0"/>
<feBlend mode="normal" in2="effect1_dropShadow_127_4357" result="effect2_dropShadow_127_4357"/>
<feBlend mode="normal" in="SourceGraphic" in2="effect2_dropShadow_127_4357" result="shape"/>
</filter>
<filter id="filter4_d_127_4357" x="42.9703" y="263.869" width="14.4003" height="14.4003" filterUnits="userSpaceOnUse" color-interpolation-filters="sRGB">
<feFlood flood-opacity="0" result="BackgroundImageFix"/>
<feColorMatrix in="SourceAlpha" type="matrix" values="0 0 0 0 0 0 0 0 0 0 0 0 0 0 0 0 0 0 127 0" result="hardAlpha"/>
<feOffset dx="-2.4" dy="1.2"/>
<feGaussianBlur stdDeviation="1.2"/>
<feColorMatrix type="matrix" values="0 0 0 0 0 0 0 0 0 0 0 0 0 0 0 0 0 0 0.11 0"/>
<feBlend mode="normal" in2="BackgroundImageFix" result="effect1_dropShadow_127_4357"/>
<feBlend mode="normal" in="SourceGraphic" in2="effect1_dropShadow_127_4357" result="shape"/>
</filter>
<filter id="filter5_d_127_4357" x="323.239" y="246.602" width="14.4003" height="14.4003" filterUnits="userSpaceOnUse" color-interpolation-filters="sRGB">
<feFlood flood-opacity="0" result="BackgroundImageFix"/>
<feColorMatrix in="SourceAlpha" type="matrix" values="0 0 0 0 0 0 0 0 0 0 0 0 0 0 0 0 0 0 127 0" result="hardAlpha"/>
<feOffset dx="-2.4" dy="1.2"/>
<feGaussianBlur stdDeviation="1.2"/>
<feColorMatrix type="matrix" values="0 0 0 0 0 0 0 0 0 0 0 0 0 0 0 0 0 0 0.11 0"/>
<feBlend mode="normal" in2="BackgroundImageFix" result="effect1_dropShadow_127_4357"/>
<feBlend mode="normal" in="SourceGraphic" in2="effect1_dropShadow_127_4357" result="shape"/>
</filter>
<filter id="filter6_d_127_4357" x="316.966" y="144.794" width="14.4003" height="14.4003" filterUnits="userSpaceOnUse" color-interpolation-filters="sRGB">
<feFlood flood-opacity="0" result="BackgroundImageFix"/>
<feColorMatrix in="SourceAlpha" type="matrix" values="0 0 0 0 0 0 0 0 0 0 0 0 0 0 0 0 0 0 127 0" result="hardAlpha"/>
<feOffset dx="-2.4" dy="1.2"/>
<feGaussianBlur stdDeviation="1.2"/>
<feColorMatrix type="matrix" values="0 0 0 0 0 0 0 0 0 0 0 0 0 0 0 0 0 0 0.11 0"/>
<feBlend mode="normal" in2="BackgroundImageFix" result="effect1_dropShadow_127_4357"/>
<feBlend mode="normal" in="SourceGraphic" in2="effect1_dropShadow_127_4357" result="shape"/>
</filter>
<filter id="filter7_d_127_4357" x="111.128" y="62.697" width="14.4003" height="14.4003" filterUnits="userSpaceOnUse" color-interpolation-filters="sRGB">
<feFlood flood-opacity="0" result="BackgroundImageFix"/>
<feColorMatrix in="SourceAlpha" type="matrix" values="0 0 0 0 0 0 0 0 0 0 0 0 0 0 0 0 0 0 127 0" result="hardAlpha"/>
<feOffset dx="-2.4" dy="1.2"/>
<feGaussianBlur stdDeviation="1.2"/>
<feColorMatrix type="matrix" values="0 0 0 0 0 0 0 0 0 0 0 0 0 0 0 0 0 0 0.11 0"/>
<feBlend mode="normal" in2="BackgroundImageFix" result="effect1_dropShadow_127_4357"/>
<feBlend mode="normal" in="SourceGraphic" in2="effect1_dropShadow_127_4357" result="shape"/>
</filter>
<filter id="filter8_d_127_4357" x="84.4412" y="118.013" width="84.9705" height="56.3469" filterUnits="userSpaceOnUse" color-interpolation-filters="sRGB">
<feFlood flood-opacity="0" result="BackgroundImageFix"/>
<feColorMatrix in="SourceAlpha" type="matrix" values="0 0 0 0 0 0 0 0 0 0 0 0 0 0 0 0 0 0 127 0" result="hardAlpha"/>
<feOffset dx="2.4" dy="1.2"/>
<feGaussianBlur stdDeviation="1.2"/>
<feColorMatrix type="matrix" values="0 0 0 0 1 0 0 0 0 1 0 0 0 0 1 0 0 0 0.96 0"/>
<feBlend mode="normal" in2="BackgroundImageFix" result="effect1_dropShadow_127_4357"/>
<feBlend mode="normal" in="SourceGraphic" in2="effect1_dropShadow_127_4357" result="shape"/>
</filter>
<filter id="filter9_d_127_4357" x="79.6412" y="119.213" width="84.9705" height="56.3469" filterUnits="userSpaceOnUse" color-interpolation-filters="sRGB">
<feFlood flood-opacity="0" result="BackgroundImageFix"/>
<feColorMatrix in="SourceAlpha" type="matrix" values="0 0 0 0 0 0 0 0 0 0 0 0 0 0 0 0 0 0 127 0" result="hardAlpha"/>
<feOffset dx="-2.4" dy="2.4"/>
<feGaussianBlur stdDeviation="1.2"/>
<feColorMatrix type="matrix" values="0 0 0 0 0 0 0 0 0 0 0 0 0 0 0 0 0 0 0.1 0"/>
<feBlend mode="normal" in2="BackgroundImageFix" result="effect1_dropShadow_127_4357"/>
<feBlend mode="normal" in="SourceGraphic" in2="effect1_dropShadow_127_4357" result="shape"/>
</filter>
<linearGradient id="paint0_linear_127_4357" x1="29.788" y1="173.288" x2="341.198" y2="154.101" gradientUnits="userSpaceOnUse">
<stop stop-color="white" stop-opacity="0.4"/>
<stop offset="0.27" stop-color="#A3A3A3" stop-opacity="0.29"/>
<stop offset="0.58" stop-color="#4A4A4A" stop-opacity="0.19"/>
<stop offset="0.84" stop-color="#131313" stop-opacity="0.12"/>
<stop offset="1" stop-opacity="0.1"/>
</linearGradient>
<linearGradient id="paint1_linear_127_4357" x1="192.157" y1="271.861" x2="192.684" y2="280.413" gradientUnits="userSpaceOnUse">
<stop stop-color="white" stop-opacity="0.4"/>
<stop offset="0.45" stop-color="#FAFAFA" stop-opacity="0.39"/>
<stop offset="0.61" stop-color="#E9E9E9" stop-opacity="0.37"/>
<stop offset="0.72" stop-color="#CBCBCB" stop-opacity="0.34"/>
<stop offset="0.82" stop-color="#A1A1A1" stop-opacity="0.29"/>
<stop offset="0.9" stop-color="#6A6A6A" stop-opacity="0.23"/>
<stop offset="0.97" stop-color="#282828" stop-opacity="0.15"/>
<stop offset="1" stop-opacity="0.1"/>
</linearGradient>
<linearGradient id="paint2_linear_127_4357" x1="276.211" y1="143.305" x2="275.684" y2="134.753" gradientUnits="userSpaceOnUse">
<stop stop-color="white" stop-opacity="0.09"/>
<stop offset="0.97" stop-color="#282828" stop-opacity="0.13"/>
</linearGradient>
<linearGradient id="paint3_linear_127_4357" x1="191.63" y1="263.298" x2="192.552" y2="278.269" gradientUnits="userSpaceOnUse">
<stop stop-color="#EAEAEA" stop-opacity="0.1"/>
<stop offset="1" stop-opacity="0.1"/>
</linearGradient>
</defs>
</svg>
