<svg width="26" height="23" viewBox="0 0 26 23" fill="none" xmlns="http://www.w3.org/2000/svg">
<path d="M1 22.6368L7.36359 1.00055C7.78486 0.999271 11.1817 1.00064 13.7272 1.00054C16.6969 1.00041 17.3118 1.42465 16.6969 2.69752C16.0819 3.97039 15.4241 5.24296 15.8484 6.09144C16.2726 6.93991 17.1211 6.93991 18.818 6.93991C20.515 6.93991 22.6362 6.93991 22.6362 6.93991L18.0851 11.1822L21.0548 15.4245C21.0548 15.4245 15.5397 15.4245 14.267 15.4245C13.2048 15.4245 11.7215 15.4245 11.7215 14.5761C11.7215 13.7276 12.9943 12.4549 12.1458 11.1822C11.2973 9.90944 7.78783 10.3337 4.61855 10.3337" fill="#181818"/>
<path d="M1 22.6368L7.36359 1.00055C7.78486 0.999271 11.1817 1.00064 13.7272 1.00054C16.6969 1.00041 17.3118 1.42465 16.6969 2.69752C16.0819 3.97039 15.4241 5.24296 15.8484 6.09144C16.2726 6.93991 17.1211 6.93991 18.818 6.93991C20.515 6.93991 22.6362 6.93991 22.6362 6.93991L18.0851 11.1822L21.0548 15.4245C21.0548 15.4245 15.5397 15.4245 14.267 15.4245C13.2048 15.4245 11.7215 15.4245 11.7215 14.5761C11.7215 13.7276 12.9943 12.4549 12.1458 11.1822C11.2973 9.90944 7.78783 10.3337 4.61855 10.3337" stroke="#181818" stroke-width="2" stroke-miterlimit="10"/>
</svg>
