<svg width="24" height="23" viewBox="0 0 24 23" fill="none" xmlns="http://www.w3.org/2000/svg">
<path d="M12.2589 18.8064L12.0006 18.6502L11.7421 18.8059L6.08397 22.2145L6.08307 22.215C5.42726 22.6119 4.62453 22.0273 4.7975 21.2835L6.2972 14.8485L6.36567 14.5547L6.13767 14.3571L1.13397 10.0215L1.13379 10.0213C0.553576 9.51905 0.86862 8.57185 1.62333 8.51182L1.62333 8.51182L1.62597 8.5116L8.21123 7.9526L8.51139 7.92712L8.62915 7.64985L11.206 1.58269L11.2068 1.58075C11.4988 0.885031 12.5014 0.88503 12.7934 1.58075L12.7941 1.58232L15.3709 7.66312L15.4886 7.94073L15.789 7.96624L22.3743 8.52524L22.3769 8.52545C23.1316 8.58548 23.4467 9.53268 22.8664 10.035L22.8663 10.0351L17.8626 14.3707L17.6346 14.5683L17.703 14.8621L19.2027 21.2972C19.2027 21.2972 19.2028 21.2973 19.2028 21.2974C19.3755 22.041 18.5729 22.6255 17.9172 22.2286L17.917 22.2286L12.2589 18.8064Z" stroke="white"/>
</svg>
